<?xml version="1.0" encoding="UTF-8"?>
<svg xmlns="http://www.w3.org/2000/svg" style="display:none">
  <symbol id="icon-dashboard" viewBox="0 0 24 24" fill="none">
    <path d="M3 11.5L12 4l9 7.5V20a1 1 0 0 1-1 1h-5v-6H9v6H4a1 1 0 0 1-1-1v-8.5z" stroke="currentColor" stroke-width="1.2" stroke-linecap="round" stroke-linejoin="round"/>
  </symbol>
  <symbol id="icon-lessons" viewBox="0 0 24 24" fill="none">
    <path d="M3 7v13a1 1 0 0 0 1 1h16" stroke="currentColor" stroke-width="1.2" stroke-linecap="round" stroke-linejoin="round"/>
    <path d="M21 3H7a2 2 0 0 0-2 2v12" stroke="currentColor" stroke-width="1.2" stroke-linecap="round" stroke-linejoin="round"/>
  </symbol>
  <symbol id="icon-schedule" viewBox="0 0 24 24" fill="none">
    <rect x="3" y="5" width="18" height="16" rx="2" stroke="currentColor" stroke-width="1.2"/>
    <path d="M16 3v4M8 3v4" stroke="currentColor" stroke-width="1.2" stroke-linecap="round"/>
  </symbol>
  <symbol id="icon-materials" viewBox="0 0 24 24" fill="none">
    <path d="M7 7h10v10H7z" stroke="currentColor" stroke-width="1.2" stroke-linecap="round" stroke-linejoin="round"/>
    <path d="M21 7v10a2 2 0 0 1-2 2H5a2 2 0 0 1-2-2V7" stroke="currentColor" stroke-width="1.2" stroke-linecap="round" stroke-linejoin="round"/>
  </symbol>
  <symbol id="icon-forum" viewBox="0 0 24 24" fill="none">
    <path d="M21 15a2 2 0 0 1-2 2H7l-4 4V5a2 2 0 0 1 2-2h14a2 2 0 0 1 2 2v10z" stroke="currentColor" stroke-width="1.2" stroke-linecap="round" stroke-linejoin="round"/>
  </symbol>
  <symbol id="icon-assessments" viewBox="0 0 24 24" fill="none">
    <path d="M9 11l2 2 4-4" stroke="currentColor" stroke-width="1.2" stroke-linecap="round" stroke-linejoin="round"/>
    <path d="M21 12v6a2 2 0 0 1-2 2H5a2 2 0 0 1-2-2V6a2 2 0 0 1 2-2h11" stroke="currentColor" stroke-width="1.2" stroke-linecap="round" stroke-linejoin="round"/>
  </symbol>
  <symbol id="icon-settings" viewBox="0 0 24 24" fill="none">
    <path d="M12 15.5a3.5 3.5 0 1 0 0-7 3.5 3.5 0 0 0 0 7z" stroke="currentColor" stroke-width="1.2" stroke-linecap="round" stroke-linejoin="round"/>
    <path d="M19.4 15a1.9 1.9 0 0 0 .14 1.5l.06.1a1 1 0 0 1-.25 1.2l-1.4 1.4a1 1 0 0 1-1.2.25l-.1-.06a1.9 1.9 0 0 0-1.5-.14 1.9 1.9 0 0 0-1.2 1.05l-.3 1.5a1 1 0 0 1-.95.76h-2.8a1 1 0 0 1-.95-.76l-.3-1.5A1.9 1.9 0 0 0 7.2 19a1.9 1.9 0 0 0-1.5.14l-.1.06a1 1 0 0 1-1.2-.25L2 17.5a1 1 0 0 1-.25-1.2l.06-.1A1.9 1.9 0 0 0 1.65 15a1.9 1.9 0 0 0-.14-1.5L1.2 12a1 1 0 0 1 .25-1.2l1.4-1.4a1 1 0 0 1 1.2-.25l.1.06c.46.24.98.36 1.5.14l1.5-.3A1.9 1.9 0 0 0 7.2 7.8a1.9 1.9 0 0 0-.14-1.5l-.06-.1a1 1 0 0 1 .25-1.2L8.9 2.9a1 1 0 0 1 1.2-.25l.1.06c.46.24.98.36 1.5.14l1.5-.3A1.9 1.9 0 0 0 14.8 2a1.9 1.9 0 0 0 1.5.14l.1.06a1 1 0 0 1 1.2.25l1.4 1.4a1 1 0 0 1 .25 1.2l-.06.1c-.22.52-.1 1.04.14 1.5l.3 1.5c.22.52.08 1.04-.14 1.5z" stroke="currentColor" stroke-width="0.9" stroke-linecap="round" stroke-linejoin="round"/>
  </symbol>
  <symbol id="icon-search" viewBox="0 0 24 24" fill="none">
    <path d="M21 21l-4.35-4.35" stroke="currentColor" stroke-width="1.4" stroke-linecap="round" stroke-linejoin="round"/>
    <circle cx="11" cy="11" r="6" stroke="currentColor" stroke-width="1.4" stroke-linecap="round" stroke-linejoin="round" fill="none"/>
  </symbol>
  <symbol id="icon-clip" viewBox="0 0 24 24" fill="none">
    <path d="M21.44 11.05L12.95 19.54a4.5 4.5 0 0 1-6.36 0 4.5 4.5 0 0 1 0-6.36l7.78-7.78a3 3 0 0 1 4.24 4.24L10.83 17.86a1.5 1.5 0 0 1-2.12 0 1.5 1.5 0 0 1 0-2.12l6.36-6.36" stroke="currentColor" stroke-width="1.4" stroke-linecap="round" stroke-linejoin="round"/>
  </symbol>
  <symbol id="icon-edit" viewBox="0 0 24 24" fill="none">
    <path d="M3 21v-3.75L14.06 6.19l3.75 3.75L6.75 21H3z" stroke="currentColor" stroke-width="1.2" stroke-linecap="round" stroke-linejoin="round"/>
    <path d="M20.71 7.04a1 1 0 0 0 0-1.41l-2.34-2.34a1 1 0 0 0-1.41 0l-1.83 1.83 3.75 3.75 1.83-1.83z" stroke="currentColor" stroke-width="1.2" stroke-linecap="round" stroke-linejoin="round"/>
  </symbol>
</svg>
